<svg width="1050" height="600" viewBox="0 0 1050 600" xmlns="http://www.w3.org/2000/svg">
  <rect id="#bg" width="1050" height="600" fill="#0f172a" />

  <!-- Dotted grid pattern -->
  <g fill="#ffffff" opacity="0.06">
    <circle cx="50" cy="50" r="2" /><circle cx="100" cy="50" r="2" /><circle cx="150" cy="50" r="2" /><circle cx="200" cy="50" r="2" /><circle cx="250" cy="50" r="2" /><circle cx="300" cy="50" r="2" /><circle cx="350" cy="50" r="2" /><circle cx="400" cy="50" r="2" /><circle cx="450" cy="50" r="2" /><circle cx="500" cy="50" r="2" />
    <circle cx="50" cy="100" r="2" /><circle cx="100" cy="100" r="2" /><circle cx="150" cy="100" r="2" /><circle cx="200" cy="100" r="2" /><circle cx="250" cy="100" r="2" /><circle cx="300" cy="100" r="2" /><circle cx="350" cy="100" r="2" /><circle cx="400" cy="100" r="2" /><circle cx="450" cy="100" r="2" /><circle cx="500" cy="100" r="2" />
    <circle cx="50" cy="150" r="2" /><circle cx="100" cy="150" r="2" /><circle cx="150" cy="150" r="2" /><circle cx="200" cy="150" r="2" /><circle cx="250" cy="150" r="2" /><circle cx="300" cy="150" r="2" /><circle cx="350" cy="150" r="2" /><circle cx="400" cy="150" r="2" /><circle cx="450" cy="150" r="2" /><circle cx="500" cy="150" r="2" />
    <circle cx="50" cy="200" r="2" /><circle cx="100" cy="200" r="2" /><circle cx="150" cy="200" r="2" /><circle cx="200" cy="200" r="2" /><circle cx="250" cy="200" r="2" /><circle cx="300" cy="200" r="2" /><circle cx="350" cy="200" r="2" /><circle cx="400" cy="200" r="2" /><circle cx="450" cy="200" r="2" /><circle cx="500" cy="200" r="2" />
    <circle cx="50" cy="250" r="2" /><circle cx="100" cy="250" r="2" /><circle cx="150" cy="250" r="2" /><circle cx="200" cy="250" r="2" /><circle cx="250" cy="250" r="2" /><circle cx="300" cy="250" r="2" /><circle cx="350" cy="250" r="2" /><circle cx="400" cy="250" r="2" /><circle cx="450" cy="250" r="2" /><circle cx="500" cy="250" r="2" />
    <circle cx="550" cy="300" r="2" /><circle cx="600" cy="300" r="2" /><circle cx="650" cy="300" r="2" /><circle cx="700" cy="300" r="2" /><circle cx="750" cy="300" r="2" /><circle cx="800" cy="300" r="2" /><circle cx="850" cy="300" r="2" /><circle cx="900" cy="300" r="2" /><circle cx="950" cy="300" r="2" /><circle cx="1000" cy="300" r="2" />
    <circle cx="550" cy="350" r="2" /><circle cx="600" cy="350" r="2" /><circle cx="650" cy="350" r="2" /><circle cx="700" cy="350" r="2" /><circle cx="750" cy="350" r="2" /><circle cx="800" cy="350" r="2" /><circle cx="850" cy="350" r="2" /><circle cx="900" cy="350" r="2" /><circle cx="950" cy="350" r="2" /><circle cx="1000" cy="350" r="2" />
    <circle cx="550" cy="400" r="2" /><circle cx="600" cy="400" r="2" /><circle cx="650" cy="400" r="2" /><circle cx="700" cy="400" r="2" /><circle cx="750" cy="400" r="2" /><circle cx="800" cy="400" r="2" /><circle cx="850" cy="400" r="2" /><circle cx="900" cy="400" r="2" /><circle cx="950" cy="400" r="2" /><circle cx="1000" cy="400" r="2" />
    <circle cx="550" cy="450" r="2" /><circle cx="600" cy="450" r="2" /><circle cx="650" cy="450" r="2" /><circle cx="700" cy="450" r="2" /><circle cx="750" cy="450" r="2" /><circle cx="800" cy="450" r="2" /><circle cx="850" cy="450" r="2" /><circle cx="900" cy="450" r="2" /><circle cx="950" cy="450" r="2" /><circle cx="1000" cy="450" r="2" />
    <circle cx="550" cy="500" r="2" /><circle cx="600" cy="500" r="2" /><circle cx="650" cy="500" r="2" /><circle cx="700" cy="500" r="2" /><circle cx="750" cy="500" r="2" /><circle cx="800" cy="500" r="2" /><circle cx="850" cy="500" r="2" /><circle cx="900" cy="500" r="2" /><circle cx="950" cy="500" r="2" /><circle cx="1000" cy="500" r="2" />
    <circle cx="550" cy="550" r="2" /><circle cx="600" cy="550" r="2" /><circle cx="650" cy="550" r="2" /><circle cx="700" cy="550" r="2" /><circle cx="750" cy="550" r="2" /><circle cx="800" cy="550" r="2" /><circle cx="850" cy="550" r="2" /><circle cx="900" cy="550" r="2" /><circle cx="950" cy="550" r="2" /><circle cx="1000" cy="550" r="2" />
  </g>

  <!-- Glowing accent circle -->
  <circle id="#color_accent" cx="820" cy="180" r="220" fill="#10b981" opacity="0.08" />
  <circle id="#color_accent_ring" cx="820" cy="180" r="160" fill="none" stroke="#10b981" stroke-width="1" opacity="0.15" />

  <!-- Left accent bar -->
  <rect id="#color_primary" x="0" y="0" width="6" height="600" fill="#10b981" />

  <rect id="#logo" x="60" y="50" width="80" height="80" rx="14" fill="#1e293b" />

  <text id="#name" x="60" y="195" font-family="Inter, sans-serif" font-size="44" font-weight="700" fill="#f1f5f9">FULL NAME</text>
  <text id="#title" x="60" y="228" font-family="Inter, sans-serif" font-size="18" letter-spacing="3" fill="#10b981">JOB TITLE</text>
  <rect id="#color_accent_divider" x="60" y="250" width="60" height="2" rx="1" fill="#10b981" />

  <text id="#phone" x="60" y="295" font-family="Inter, sans-serif" font-size="16" fill="#94a3b8">+1 (555) 000-0000</text>
  <text id="#email" x="60" y="325" font-family="Inter, sans-serif" font-size="16" fill="#94a3b8">hello@example.com</text>
  <text id="#website" x="60" y="355" font-family="Inter, sans-serif" font-size="16" fill="#94a3b8">www.example.com</text>
  <text id="#address" x="60" y="385" font-family="Inter, sans-serif" font-size="16" fill="#94a3b8">123 Innovation Dr, Tech City</text>
</svg>
